<svg id="Layer_7" data-name="Layer 7" xmlns="http://www.w3.org/2000/svg" viewBox="0 0 112.2 95.4"><defs><style>.cls-1{fill:#f9f9f9;stroke:#fff;stroke-miterlimit:10;}</style></defs><title>keebsSWblfill</title><g id="Layer_2_copy_3" data-name="Layer 2 copy 3"><g id="Layer_9" data-name="Layer 9"><path class="cls-1" d="M357,152.85c-1.42-.91-4.47-.2-4.56,0s-3.22,2.23-3.22,2.23l-5,8.69-11.07.79L319.06,163l-4.86,5.36-6.07,9.6H305.4s-5.47,3.84-6.07,3.95-4.19.91-4.19.91l-1.57,2.32.71,2.53,2.83,2.83,1.38,1.75v1l-1,11.05-.21,4,1.18,3.09,2.1,3.44,22.11,27.59,3.23,1.53,2.41-2.05,2.45-2.2,2.51,1.73,2.14.63,4,.36,35.25-2.11,7.87.21,3.64.2,1.11-2.33L392.44,226l6.1-2.73a6.59,6.59,0,0,0,1.63-.61,8.46,8.46,0,0,0,.9-2.93,13,13,0,0,0-.9-2l-1.83-3.74-14.06-25.38-13.45-14.26-4.74-3.13,1.15-5.67.86-4.14s.3-2.15-.4-2.33-1.09-2.43-1.61-2.73a20.73,20.73,0,0,0-4-.3l-2.55-.31Z" transform="translate(-291.94 -150.48)"/></g><path d="M291.94,185l1.09-3.93a2.32,2.32,0,0,1,2.39-1.2,11.1,11.1,0,0,0,4.41-1c1.4-.66,2.51-1.93,3.87-2.7a11.05,11.05,0,0,1,3.82-1.45A2.74,2.74,0,0,0,310,173c1.2-2.64,2.45-5.25,3.78-7.82a6,6,0,0,1,5.87-3.43c7.28.19,14.55.37,21.83.58,2,.06,2.52-.39,3-2.35.42-1.8.92-3.59,1.43-5.37.22-.81.71-1.44,1.66-1.24,1.37.28,2.05-.22,2.23-1.6.14-1.05.8-1.4,1.85-1.25,1.52.21,3,.34,4.58.51,1.33.15,2.76.35,3.41,1.64,1.05,2.08,2.67,2.33,4.67,1.94a4.52,4.52,0,0,1,4.4,1.52c.5.53.91,1.14,1.44,1.63a2,2,0,0,1,.57,2.21c-.56,1.81-1.07,3.64-1.74,5.42a4.36,4.36,0,0,0,.3,4.15,16.85,16.85,0,0,0,2.16,2.6c4.59,4.62,9.25,9.17,13.81,13.83a14.52,14.52,0,0,1,2.53,3.65c2.12,4.2,4.06,8.49,6.2,12.69a16.67,16.67,0,0,0,2.71,3.67,7.37,7.37,0,0,1,2.25,4.77,9.45,9.45,0,0,0,3.69,6.85,10.46,10.46,0,0,1,1.56,2.25l-1.09,3.92c-1,1.84-2.8,1.83-4.5,1.77a3.72,3.72,0,0,0-4,2.59c-1.72,4-3.69,8-5.34,12a4.29,4.29,0,0,1-4.12,3c-1.3.09-2.23-1-3.13-1.08a29.42,29.42,0,0,0-8.64.33c-1.51.3-2.95,1.23-4.62,1.24-1.4,0-2.8,0-4.19.09-8.44.45-16.87,1-25.31,1.37a8.74,8.74,0,0,1-7-2.57,1.57,1.57,0,0,0-2.63.39,6.31,6.31,0,0,1-5.45,3l-.52-.15a22.22,22.22,0,0,1-2.41-2.34q-12.43-16-24.83-32a4.39,4.39,0,0,1-.93-3.42c.43-3.27.92-6.54,1.25-9.83.58-5.93,1.52-4.67-3.11-10.06A15.43,15.43,0,0,1,291.94,185Zm61.88,4.11c-.05.62-.12,1.15-.13,1.68q-.24,9.63-.45,19.26c-.05,1.91-.23,2.08-2.1,2.14-3.66.11-7.34.07-11,.42-4.53.45-7.77-1.3-10.19-5a2.71,2.71,0,0,1-.19-3c2.37-4.83,4.67-9.7,7-14.54.48-1,.69-1.86-.21-2.83-6.2-6.66-12.35-13.36-18.54-20a12.65,12.65,0,0,0-1.51-1.21l-8,16.35-3.38-3.6-5.87,4.38c.76.91,1.43,1.75,2.14,2.56Q314.72,200.89,328,216.1a6.39,6.39,0,0,0,5.36,2.34c16.95-.38,33.9-.71,50.85-1.09,4.19-.09,8.38-.3,12.73-.46L396,212c-.49,0-.89-.05-1.29,0l-13.27.61c-2.18.1-2.36-.08-2.27-2.21q.4-9.36.79-18.71c.08-1.9-.18-2.16-2-2.19l-10.58-.17Zm-53.69,6.68a4,4,0,0,0-.28.69c-.47,3.68-1,7.35-1.35,11a4.45,4.45,0,0,0,.8,2.88c6.76,8.8,13.6,17.53,20.42,26.28.29.36.6.7,1,1.2,1.26-3.54,2.39-6.83,3.62-10.09a2.75,2.75,0,0,0-.61-3.08c-2.94-3.44-5.79-6.95-8.71-10.41a3.72,3.72,0,0,1-.86-4,21.73,21.73,0,0,0,1-3.51,2.29,2.29,0,0,0-.36-1.66c-1.47-1.78-3.07-3.45-4.57-5.2a4.88,4.88,0,0,0-3.93-1.78C304,198.2,301.7,198.26,300.13,195.83Zm46.15-30.91c-.63,2.27-1.27,4.53-1.89,6.8-.51,1.87-.06,2.61,1.82,3a9,9,0,0,0,1.48.13,9,9,0,0,1,7.17,3.19c.59.71,2.11.8,3.23.87.42,0,.87-.82,1.37-1.19.74-.54,1.56-1,2.28-1.52.56-.42,1.3-.87,1.51-1.46.66-1.88,1.11-3.82,1.64-5.74.73-2.62,1.49-5.23,2.17-7.86.55-2.08-.11-3.05-2.18-3.28-1.26-.14-2.55-.05-3.78-.31a4.37,4.37,0,0,1-2.43-1.19,6.34,6.34,0,0,0-5.08-2.42c-.94,0-1.58.24-1.66,1.31a1.51,1.51,0,0,1-2.05,1.52c-1-.21-1.41.21-1.65,1.1C347.6,160.21,346.93,162.56,346.28,164.92ZM320,164.56l-.22.29a3.6,3.6,0,0,1,.41.37q8.85,9.65,17.71,19.3a5.76,5.76,0,0,0,4.92,1.78c1.26-.1,2.53-.2,3.79-.19q14.85.15,29.69.33l5,.06c-.06-.23-.05-.28-.08-.31q-6.37-6.48-12.78-12.93a3.32,3.32,0,0,0-1.06-.47l-.38.47c3.41,3.83,7.19,7.32,10.91,11.28-.76.05-1.2.11-1.63.1-8.27-.2-16.54-.36-24.81-.65a4.72,4.72,0,0,1-2.84-1.22c-5.33-5.16-10.56-10.42-15.82-15.64-.31-.31-.59-.64-1-1.06,3.85-.36,7.56.5,11.18-.28v-.56Zm31.81,72.68a3.84,3.84,0,0,0,.73.15c4.11-.17,8.22-.29,12.33-.58a3,3,0,0,0,1.9-1.29c3.05-4.4,4.19-9.53,5.5-14.74-1.17,0-2.2,0-3.23,0-3.44.07-6.87.17-10.3.23a2.91,2.91,0,0,0-3.07,2.34c-.43,1.61-.9,3.22-1.35,4.84C353.46,231.18,352.64,234.14,351.78,237.24Zm22.91,1.52c2.51,0,4.68-.14,6.84-.11a5.16,5.16,0,0,1,2.2.49c1.52.78,2.14.65,2.85-.92,1.72-3.79,3.41-7.59,5.13-11.38a2,2,0,0,0-.33-2.37,4.85,4.85,0,0,1-1-1.14c-1.24-2.86-3.48-3.3-6.27-2.93-2.15.29-2.47.31-3,2.36C379.55,228.24,378.28,233.82,374.69,238.76Zm-36.26-11c-1.13,0-2.09.1-2.54,1.24l-3.84,9.68c.69.29,1.91.4,2.25,1,.8,1.44,2.06,1.74,3.4,2.16a1.83,1.83,0,0,0,2.52-1.12,91.11,91.11,0,0,0,6.44-18.12,11.18,11.18,0,0,0,.16-1.24c-2,0-3.84.15-5.68.12-.83,0-1.09.34-1.27,1C339.44,224.22,338.94,225.91,338.43,227.73Zm10.77-38.61c-2.43,0-4.73-.07-7,.1a3.69,3.69,0,0,0-3,2.42c-1,2.2-2.11,4.39-3.17,6.59-.93,1.94-1.85,3.88-2.87,6,4-.11,7.69-.21,11.42-.35a1,1,0,0,0,.69-.6C346.56,198.65,347.84,194,349.2,189.12Zm-5.94,52.57a4.83,4.83,0,0,0,.79.12l24.1-1.38a3.93,3.93,0,0,0,3.54-2.36c1.65-3.57,3.34-7.12,4.8-10.76a65.42,65.42,0,0,0,1.84-6.45c-2.49-.53-2.82-.35-3.37,1.64-.2.74-.37,1.49-.57,2.24a50.34,50.34,0,0,1-5.15,13.09,4.15,4.15,0,0,1-3.75,2.21c-4.38.14-8.76.41-13.14.61-1.74.08-3.48.09-5.36.13l6-19.33c-2-.48-2.68,0-3.32,2-1.48,4.56-3,9.12-4.52,13.66C344.64,238.59,343.94,240.05,343.26,241.69Zm-15.52-17.2c2.74,0,5.35.13,8,0,.32,0,.7-1.24.8-1.94.05-.3-.52-1-.87-1-1.11-.14-2.26,0-3.38-.09a8.13,8.13,0,0,1-6-2.93c-2.23-2.78-4.57-5.48-6.94-8.14-.39-.44-1.18-.53-1.79-.78a9.37,9.37,0,0,0-.58,2.08,2.3,2.3,0,0,0,.63,1.3c2.73,3.32,5.46,6.63,8.24,9.9A13.66,13.66,0,0,0,327.74,224.49Zm5.56,3.35c-1.76-.17-3.18-.34-4.62-.43a1.91,1.91,0,0,0-2.07,1.57c-.67,2.24-1.39,4.47-2.09,6.71-.37,1.21-.79,2.41-1.08,3.64a2.69,2.69,0,0,0,1.45,2.93c1.33.36,1.68-.65,2.14-1.55.82-1.61,1.75-3.17,2.53-4.79C330.82,233.3,332,230.63,333.3,227.84Zm49.26-23.22L391,204c-2.11-5.2-4.23-10.1-7.79-14.68C383,194.62,382.77,199.55,382.56,204.62Zm-32-7.27-.38,0c-.65,2.33-1.35,4.65-1.93,7-.53,2.19-1.11,2.7-3.34,2.73-3.39,0-6.78.11-10.17.18-.33,0-.65.08-1,.13a2.93,2.93,0,0,0,3.09,2.13c3.48-.06,7-.06,10.44-.11,1,0,2-.08,3-.13C350.36,205.18,350.45,201.26,350.54,197.35ZM306,195.06l-10.22-11.65a1.94,1.94,0,0,0-.14,2.8c2.38,2.78,4.78,5.54,7.17,8.31A2.36,2.36,0,0,0,306,195.06Zm88.76,13.75.15-.46c-.83-.44-1.66-1.24-2.48-1.24-3.11,0-6.22.26-9.32.48-.31,0-.59.42-.89.64.24.29.42.72.73.85a3.37,3.37,0,0,0,1.45.22c2.52-.06,5.05-.16,7.57-.27C392.93,209,393.86,208.88,394.79,208.81Zm-2.35,11.87v.71c.74.44,1.49,1.25,2.23,1.24a20.52,20.52,0,0,0,5.16-.77c.32-.09.3-1.5.33-2.3a1.46,1.46,0,0,0-.95-.31c-1.63.21-3.27.44-4.89.75A12.22,12.22,0,0,0,392.44,220.68Zm-25.93-43.17c-.89.78-1.58,1.85-2.46,2.05a2.46,2.46,0,0,0-2,1.76l7.92.08.15-.34Zm-17.6.9c.87,2.22,2.06,2.92,3.51,2.08C351.54,179.36,350.8,178.06,348.91,178.41Zm-9.75-9.2,1.93,1.95.54-2Z" transform="translate(-291.94 -150.48)"/></g></svg>