<svg id="Layer_3" data-name="Layer 3" xmlns="http://www.w3.org/2000/svg" viewBox="0 0 349.52 101.51"><title>keebs</title><path d="M109.85,354.44V261.63H128.2v37.18l8.65-37.18h18.67l-10.39,42.5,12.55,50.31H138.43L128.3,309.51v44.93Z" transform="translate(-109.85 -253.77)"/><path d="M160.84,354.44V261.63H198v17.93H179.72v18.09h17.51V315.1H179.72v21.26h19.46v18.08Z" transform="translate(-109.85 -253.77)"/><path d="M205.3,354.44V261.63h37.12v17.93H224.18v18.09h17.5V315.1h-17.5v21.26h19.45v18.08Z" transform="translate(-109.85 -253.77)"/><path d="M249.75,354.44V261.63h25.16q10.13,0,14.74,4.93t4.61,16.27v4.06q0,6.54-2.35,10.6a11.17,11.17,0,0,1-7.14,5.33,11.34,11.34,0,0,1,8.41,7.41,41.58,41.58,0,0,1,2.13,14.21,65.78,65.78,0,0,1-1.68,15.77,19.5,19.5,0,0,1-6.12,10.49c-2.95,2.5-7.16,3.74-12.6,3.74Zm18.14-57.85h3.8c1.72,0,2.83-.66,3.32-2a14,14,0,0,0,.74-4.8v-9.33q0-4.48-4-4.49h-3.9Zm1.85,41.51q7.22,0,7.22-6.86v-11.6a13.75,13.75,0,0,0-1.18-6.25q-1.18-2.29-4.46-2.29h-3.43V338C268.67,338.06,269.28,338.1,269.74,338.1Z" transform="translate(-109.85 -253.77)"/><path d="M322.79,355.29q-23.42,0-23.41-23.73v-6.28h19v9.28a7.36,7.36,0,0,0,1.05,4.22,3.82,3.82,0,0,0,3.38,1.53q4.11,0,4.11-6.17c0-3.44-.72-6-2.16-7.72a33.6,33.6,0,0,0-5.27-4.94l-10.08-7.75a29.15,29.15,0,0,1-7.22-7.8q-2.48-4.11-2.48-11.45a18.55,18.55,0,0,1,3.24-11.23,19.47,19.47,0,0,1,8.6-6.59,30.67,30.67,0,0,1,11.58-2.16q23,0,23,22.94v1.47H326.59v-3a13.3,13.3,0,0,0-.82-4.59,3.12,3.12,0,0,0-3.19-2.21q-4,0-4,4.21A7.78,7.78,0,0,0,322,300l11.7,8.54a37.79,37.79,0,0,1,9.2,9.39q3.72,5.43,3.72,14.45,0,11.18-6.35,17T322.79,355.29Z" transform="translate(-109.85 -253.77)"/><g id="Layer_2" data-name="Layer 2"><path d="M347.16,288.33l1.09-3.93a2.33,2.33,0,0,1,2.4-1.2,11,11,0,0,0,4.4-1.05c1.41-.66,2.51-1.93,3.88-2.7a10.93,10.93,0,0,1,3.81-1.45,2.76,2.76,0,0,0,2.47-1.71c1.2-2.64,2.45-5.25,3.78-7.82a6,6,0,0,1,5.86-3.43q10.92.27,21.83.58c2,.06,2.53-.39,3-2.35.42-1.8.92-3.59,1.42-5.37.23-.81.71-1.44,1.66-1.24,1.37.28,2.06-.22,2.24-1.6.14-1.05.8-1.4,1.85-1.25,1.52.21,3.05.34,4.57.51,1.33.15,2.77.35,3.41,1.64,1.05,2.08,2.67,2.33,4.67,1.94a4.54,4.54,0,0,1,4.41,1.52c.49.53.9,1.14,1.43,1.63a2,2,0,0,1,.58,2.21c-.56,1.81-1.08,3.64-1.74,5.42a4.3,4.3,0,0,0,.3,4.15,16.79,16.79,0,0,0,2.15,2.6c4.6,4.62,9.26,9.17,13.81,13.83a14.27,14.27,0,0,1,2.53,3.65c2.13,4.2,4.06,8.49,6.2,12.69a17,17,0,0,0,2.71,3.67,7.27,7.27,0,0,1,2.25,4.77,9.48,9.48,0,0,0,3.69,6.85,10.46,10.46,0,0,1,1.56,2.25l-1.09,3.92c-1,1.84-2.79,1.83-4.5,1.77a3.71,3.71,0,0,0-3.95,2.59c-1.72,4-3.7,7.95-5.35,12a4.29,4.29,0,0,1-4.12,3c-1.29.09-2.23-1-3.13-1.08a29.43,29.43,0,0,0-8.64.33c-1.5.3-2.94,1.23-4.61,1.24-1.4,0-2.8,0-4.2.09-8.43.45-16.86,1-25.3,1.37a8.75,8.75,0,0,1-7-2.57,1.57,1.57,0,0,0-2.63.39,6.3,6.3,0,0,1-5.44,3l-.53-.15a23.07,23.07,0,0,1-2.4-2.34q-12.45-16-24.84-32a4.34,4.34,0,0,1-.92-3.42c.43-3.27.92-6.54,1.24-9.83.59-5.93,1.53-4.67-3.11-10.06A16,16,0,0,1,347.16,288.33Zm61.88,4.1c0,.63-.11,1.16-.12,1.69q-.24,9.63-.46,19.26c0,1.91-.23,2.08-2.1,2.14-3.66.11-7.33.07-11,.42-4.54.45-7.78-1.3-10.19-5a2.69,2.69,0,0,1-.19-3c2.37-4.83,4.67-9.7,7-14.54.48-1,.7-1.86-.21-2.83-6.2-6.66-12.35-13.36-18.53-20a13.51,13.51,0,0,0-1.51-1.21l-8,16.35-3.39-3.6-5.87,4.37c.77.92,1.44,1.76,2.14,2.57q13.24,15.19,26.49,30.41a6.38,6.38,0,0,0,5.35,2.34c17-.38,33.9-.71,50.85-1.09,4.19-.09,8.38-.3,12.73-.46l-.93-4.86c-.49,0-.89-.05-1.29,0l-13.28.61c-2.17.1-2.35-.08-2.26-2.21q.4-9.36.79-18.71c.07-1.9-.18-2.16-2-2.19l-10.58-.17Zm-53.68,6.69a3.53,3.53,0,0,0-.29.69c-.47,3.68-1,7.35-1.34,11.05a4.44,4.44,0,0,0,.79,2.88c6.76,8.8,13.61,17.53,20.43,26.28.28.36.6.7,1,1.2,1.26-3.54,2.38-6.83,3.61-10.09a2.74,2.74,0,0,0-.6-3.08c-2.94-3.44-5.79-6.95-8.71-10.41a3.7,3.7,0,0,1-.86-4,22.79,22.79,0,0,0,1-3.51,2.25,2.25,0,0,0-.37-1.66c-1.46-1.78-3.06-3.45-4.56-5.2a4.9,4.9,0,0,0-3.94-1.78C359.27,301.49,356.92,301.54,355.36,299.12Zm46.14-30.91c-.63,2.27-1.27,4.53-1.89,6.8-.5,1.87-.06,2.61,1.82,3a9.25,9.25,0,0,0,1.48.13,9,9,0,0,1,7.18,3.19c.59.71,2.11.8,3.22.87.43,0,.88-.82,1.38-1.19.73-.54,1.55-1,2.28-1.52.56-.42,1.29-.87,1.5-1.46.67-1.88,1.12-3.82,1.65-5.74.73-2.62,1.48-5.23,2.17-7.86.54-2.08-.12-3.05-2.19-3.28-1.25-.14-2.55-.05-3.78-.31a4.41,4.41,0,0,1-2.43-1.19,6.34,6.34,0,0,0-5.07-2.42c-.94,0-1.58.24-1.67,1.31a1.5,1.5,0,0,1-2,1.52c-1-.21-1.42.21-1.66,1.1C402.82,263.5,402.16,265.85,401.5,268.21Zm-26.31-.36-.22.29a4.83,4.83,0,0,1,.42.37q8.85,9.64,17.7,19.3a5.77,5.77,0,0,0,4.92,1.78c1.27-.1,2.53-.2,3.8-.19l29.68.33,5,.06c-.05-.23-.05-.29-.08-.31Q430,283,423.62,276.55a3.48,3.48,0,0,0-1.07-.47l-.37.47c3.4,3.83,7.19,7.32,10.91,11.28-.76.05-1.2.11-1.64.1-8.27-.2-16.54-.36-24.8-.65a4.72,4.72,0,0,1-2.85-1.22c-5.32-5.16-10.55-10.42-15.81-15.64-.31-.31-.59-.64-1-1.06,3.86-.36,7.56.5,11.19-.28v-.56ZM407,340.53a3.84,3.84,0,0,0,.73.15c4.11-.17,8.22-.29,12.32-.58a3.08,3.08,0,0,0,1.91-1.29c3-4.4,4.18-9.53,5.49-14.74-1.16,0-2.2,0-3.23,0-3.43.07-6.86.17-10.3.23a2.9,2.9,0,0,0-3.06,2.34c-.44,1.61-.91,3.22-1.36,4.84Zm22.91,1.52c2.5-.05,4.67-.14,6.84-.11a5.16,5.16,0,0,1,2.2.49c1.52.78,2.14.65,2.85-.92,1.71-3.79,3.4-7.59,5.13-11.38a2,2,0,0,0-.34-2.37,4.58,4.58,0,0,1-1-1.14c-1.24-2.86-3.48-3.3-6.27-2.93-2.16.29-2.47.31-3.05,2.36C434.78,331.53,433.51,337.11,429.92,342.05Zm-36.26-11c-1.13,0-2.1.1-2.55,1.24q-1.91,4.83-3.83,9.68c.68.29,1.91.4,2.24,1,.8,1.44,2.06,1.74,3.41,2.16a1.82,1.82,0,0,0,2.51-1.12,91.77,91.77,0,0,0,6.45-18.12c.08-.36.1-.75.16-1.24-2,.05-3.84.15-5.69.12-.82,0-1.08.34-1.26,1.05C394.66,327.51,394.16,329.2,393.66,331Zm10.76-38.62c-2.43,0-4.72-.06-7,.11a3.69,3.69,0,0,0-3,2.42c-1,2.2-2.12,4.39-3.17,6.59l-2.88,6c4-.11,7.7-.21,11.43-.35a1,1,0,0,0,.69-.6C401.78,301.94,403.07,297.28,404.42,292.4ZM398.49,345a4.92,4.92,0,0,0,.78.12q12.06-.68,24.1-1.38a4,4,0,0,0,3.55-2.36c1.65-3.57,3.33-7.12,4.79-10.76a60.37,60.37,0,0,0,1.84-6.45c-2.49-.53-2.81-.35-3.36,1.64-.21.74-.37,1.49-.57,2.24a50.7,50.7,0,0,1-5.15,13.09,4.15,4.15,0,0,1-3.75,2.21c-4.38.14-8.76.41-13.14.61-1.74.08-3.48.09-5.37.13l6-19.33c-2-.48-2.69,0-3.32,1.95q-2.22,6.84-4.53,13.66C399.87,341.88,399.17,343.34,398.49,345ZM383,327.78c2.74,0,5.36.13,8,0,.32,0,.7-1.24.8-1.94,0-.3-.53-.95-.87-1-1.12-.14-2.26,0-3.38-.09a8.15,8.15,0,0,1-6-2.93c-2.22-2.78-4.56-5.48-6.93-8.14-.4-.44-1.19-.53-1.8-.78a9.91,9.91,0,0,0-.57,2.08,2.22,2.22,0,0,0,.62,1.3c2.73,3.32,5.46,6.63,8.25,9.9A13,13,0,0,0,383,327.78Zm5.57,3.35c-1.76-.17-3.19-.34-4.62-.43a1.91,1.91,0,0,0-2.07,1.57c-.67,2.24-1.4,4.47-2.09,6.71-.38,1.21-.8,2.41-1.08,3.64a2.68,2.68,0,0,0,1.45,2.93c1.32.36,1.68-.65,2.14-1.55.82-1.61,1.74-3.17,2.52-4.79C386.05,336.59,387.24,333.92,388.53,331.13Zm49.26-23.22,8.42-.65c-2.11-5.2-4.23-10.1-7.79-14.68C438.2,297.91,438,302.84,437.79,307.91Zm-32-7.27-.39-.05c-.64,2.33-1.34,4.65-1.92,7s-1.12,2.7-3.34,2.73c-3.39,0-6.78.11-10.17.18a10.36,10.36,0,0,0-1,.13,2.92,2.92,0,0,0,3.09,2.13c3.48-.06,7-.06,10.44-.11,1,0,1.95-.08,3-.13C405.59,308.47,405.68,304.55,405.77,300.64Zm-44.51-2.29L351,286.7a1.93,1.93,0,0,0-.14,2.8c2.38,2.78,4.77,5.54,7.17,8.31A2.36,2.36,0,0,0,361.26,298.35ZM450,312.1l.16-.46c-.83-.44-1.66-1.24-2.49-1.24-3.1,0-6.21.26-9.31.48-.31,0-.6.42-.89.64.24.29.42.72.73.85a3.33,3.33,0,0,0,1.44.22c2.53-.06,5.05-.16,7.58-.27C448.16,312.28,449.08,312.17,450,312.1ZM447.67,324v.71c.75.44,1.5,1.25,2.24,1.24a20.52,20.52,0,0,0,5.16-.77c.31-.09.29-1.5.33-2.3a1.5,1.5,0,0,0-.95-.31c-1.64.21-3.27.44-4.89.75A12.22,12.22,0,0,0,447.67,324ZM421.73,280.8c-.89.78-1.58,1.85-2.46,2.05a2.47,2.47,0,0,0-2,1.76l7.93.08.14-.34Zm-17.59.9c.86,2.22,2.06,2.92,3.51,2.08C406.76,282.65,406,281.35,404.14,281.7Zm-9.75-9.2,1.92,1.95.55-2Z" transform="translate(-109.85 -253.77)"/></g></svg>